<svg xmlns="http://www.w3.org/2000/svg" version="1.1" xmlns:xlink="http://www.w3.org/1999/xlink" width="694" height="494"><svg width="694" height="494" viewBox="0 0 694 494" fill="none" xmlns="http://www.w3.org/2000/svg">
<path d="M680.333 247C680.333 247 559.12 480.333 347 480.333C134.879 480.333 13.6667 247 13.6667 247C13.6667 247 134.879 13.6667 347 13.6667C442.93 13.6667 520.267 61.3874 576.207 113.667" stroke="black" stroke-width="26" stroke-linecap="round" stroke-linejoin="round"></path>
<path fill-rule="evenodd" clip-rule="evenodd" d="M285.802 205.29L341.719 174.143V115.584C335.221 114.432 329.338 111.036 325.099 105.991L235.517 157.69C236.582 160.665 237.16 163.852 237.16 167.192C237.16 169.984 236.765 172.656 236.004 175.206L285.802 205.29ZM320.351 97.8859C319.162 94.7316 318.554 91.3894 318.555 88.0198C318.555 80.2787 321.69 73.2661 326.773 68.1965C331.857 63.1268 338.888 60 346.65 60C354.412 60 361.443 63.1268 366.527 68.1965C369.138 70.7979 371.209 73.8884 372.619 77.2903C374.03 80.6922 374.752 84.3385 374.745 88.0198C374.745 91.4198 374.137 94.668 373.041 97.6734L463.049 149.584C463.689 148.825 464.328 148.066 465.028 147.368C467.636 144.764 470.735 142.699 474.146 141.292C477.557 139.886 481.213 139.165 484.905 139.172C492.667 139.172 499.698 142.299 504.781 147.368C507.393 149.97 509.464 153.06 510.874 156.462C512.284 159.864 513.007 163.51 513 167.192C513 174.933 509.865 181.915 504.781 186.985C500.413 191.347 494.718 194.144 488.588 194.938V297.88C494.889 298.699 500.52 301.583 504.781 305.833C509.865 310.903 513 317.915 513 325.626C513.003 329.307 512.279 332.952 510.868 336.353C509.457 339.754 507.388 342.844 504.778 345.446C502.169 348.049 499.07 350.113 495.66 351.52C492.25 352.927 488.595 353.649 484.905 353.646C480.738 353.652 476.622 352.732 472.857 350.952C469.092 349.172 465.773 346.576 463.141 343.355L373.01 395.327C374.106 398.332 374.715 401.58 374.715 404.98C374.715 412.721 371.58 419.734 366.496 424.803C363.888 427.408 360.789 429.473 357.378 430.88C353.967 432.286 350.311 433.007 346.62 433C338.858 433 331.826 429.873 326.743 424.803C321.659 419.734 318.524 412.721 318.524 404.98C318.524 401.519 319.163 398.18 320.32 395.114L230.768 343.476C228.134 346.673 224.82 349.246 221.067 351.01C217.313 352.774 213.214 353.685 209.065 353.676C201.303 353.676 194.272 350.55 189.188 345.48C184.135 340.41 181 333.398 181 325.657C181 317.915 184.135 310.933 189.219 305.864C193.538 301.552 199.148 298.76 205.199 297.91V194.908C199.143 194.071 193.53 191.277 189.219 186.954C186.605 184.36 184.533 181.276 183.122 177.878C181.712 174.481 180.99 170.838 181 167.161C181 159.42 184.135 152.408 189.219 147.338C191.827 144.733 194.926 142.668 198.337 141.262C201.748 139.855 205.404 139.135 209.095 139.141C213.27 139.134 217.393 140.057 221.164 141.843C224.934 143.629 228.257 146.232 230.89 149.463L320.351 97.8859ZM368.323 105.809C364.057 110.997 358.059 114.478 351.429 115.615V174.143L407.224 206.383L458.514 176.815C457.388 173.809 456.809 170.531 456.809 167.161C456.809 163.883 457.388 160.695 458.423 157.781L368.323 105.809ZM480.004 194.756C474.327 193.771 469.095 191.056 465.028 186.985C464.45 186.408 463.902 185.831 463.384 185.193L412.185 214.701V277.783L463.597 307.381C464.054 306.865 464.51 306.349 464.997 305.864C469.068 301.797 474.298 299.083 479.973 298.092V194.756H480.004ZM458.483 335.219C457.388 332.244 456.809 329.026 456.809 325.687C456.809 322.165 457.449 318.796 458.666 315.669L408.928 287.042L351.429 320.374V377.416C358.059 378.552 364.057 382.034 368.323 387.221L458.483 335.219ZM325.099 387.009C329.338 381.964 335.221 378.568 341.719 377.416V320.101L284.006 286.708L235.03 314.91C236.399 318.219 237.191 321.862 237.191 325.687C237.191 329.087 236.582 332.335 235.486 335.341L325.099 387.009ZM213.753 298.031C219.627 299.003 224.893 301.826 228.942 305.864C229.246 306.167 229.52 306.471 229.794 306.774L279.684 278.056V212.879L231.651 183.858C230.829 184.981 229.916 186.013 228.942 186.985C224.815 191.102 219.507 193.838 213.753 194.817V298.031ZM209.126 185.497C209.248 185.497 209.369 185.467 209.491 185.467H209.735C214.386 185.321 218.807 183.41 222.093 180.124C223.803 178.423 225.159 176.403 226.083 174.178C227.008 171.954 227.483 169.569 227.481 167.161C227.481 162.092 225.411 157.508 222.093 154.199C218.775 150.89 214.179 148.825 209.095 148.825C204.012 148.825 199.416 150.89 196.098 154.199C194.388 155.899 193.032 157.919 192.108 160.144C191.183 162.368 190.708 164.753 190.71 167.161C190.71 172.231 192.78 176.815 196.098 180.124C197.807 181.832 199.838 183.185 202.074 184.108C204.31 185.03 206.706 185.502 209.126 185.497ZM359.617 392.078C357.912 390.373 355.886 389.021 353.656 388.099C351.425 387.177 349.034 386.703 346.62 386.705C341.536 386.705 336.94 388.769 333.622 392.078C330.304 395.387 328.234 399.971 328.234 405.041C328.234 410.111 330.304 414.695 333.622 418.003C336.94 421.312 341.536 423.377 346.62 423.377C351.703 423.377 356.299 421.312 359.617 418.003C362.935 414.695 365.005 410.111 365.005 405.041C365.005 399.971 362.965 395.387 359.617 392.078ZM359.617 75.0572C357.912 73.3521 355.886 71.9997 353.656 71.0776C351.425 70.1555 349.034 69.6819 346.62 69.684C341.536 69.684 336.94 71.7483 333.622 75.0572C330.304 78.3662 328.234 82.9501 328.234 88.0198C328.234 93.0894 330.304 97.6734 333.622 100.982C335.327 102.687 337.353 104.04 339.583 104.962C341.814 105.884 344.205 106.358 346.62 106.356C351.703 106.356 356.299 104.291 359.617 100.982C361.327 99.282 362.683 97.2615 363.607 95.037C364.532 92.8125 365.007 90.4278 365.005 88.0198C365.005 82.9501 362.965 78.3662 359.617 75.0572ZM497.872 312.724C496.167 311.019 494.141 309.667 491.91 308.745C489.68 307.823 487.289 307.349 484.874 307.351C479.791 307.351 475.195 309.415 471.877 312.724C470.167 314.425 468.811 316.445 467.886 318.67C466.962 320.894 466.487 323.279 466.489 325.687C466.489 330.757 468.559 335.341 471.877 338.65C473.582 340.355 475.608 341.707 477.838 342.629C480.068 343.551 482.46 344.025 484.874 344.023C489.958 344.023 494.554 341.958 497.872 338.65C499.581 336.949 500.937 334.929 501.862 332.704C502.787 330.48 503.262 328.095 503.259 325.687C503.259 320.617 501.22 316.033 497.872 312.724ZM222.093 312.724C218.775 309.415 214.179 307.351 209.095 307.351C204.012 307.351 199.416 309.415 196.098 312.724C194.388 314.425 193.032 316.445 192.108 318.67C191.183 320.894 190.708 323.279 190.71 325.687C190.71 330.757 192.78 335.341 196.098 338.65C199.416 341.958 204.012 344.023 209.095 344.023C214.179 344.023 218.775 341.958 222.093 338.65C223.803 336.949 225.159 334.929 226.083 332.704C227.008 330.48 227.483 328.095 227.481 325.687C227.471 320.826 225.534 316.167 222.093 312.724ZM468.498 175.449C468.741 175.692 468.924 175.995 469.107 176.299C469.289 176.602 469.411 176.906 469.533 177.24C470.233 178.272 471.024 179.243 471.877 180.124C473.582 181.829 475.608 183.181 477.838 184.103C480.068 185.025 482.46 185.499 484.874 185.497C489.958 185.497 494.554 183.433 497.872 180.124C499.581 178.423 500.937 176.403 501.862 174.178C502.787 171.954 503.262 169.569 503.259 167.161C503.259 162.092 501.19 157.508 497.872 154.199C496.167 152.494 494.141 151.141 491.91 150.219C489.68 149.297 487.289 148.823 484.874 148.825C479.791 148.825 475.195 150.89 471.877 154.199C470.167 155.899 468.811 157.919 467.886 160.144C466.962 162.368 466.487 164.753 466.489 167.161C466.519 170.167 467.25 172.959 468.498 175.449ZM288.785 277.024C289.477 277.766 289.932 278.696 290.094 279.696L342.236 310.265V249.915L288.785 218.192V277.024ZM403.115 219.011L351.338 249.946V310.326L403.115 279.817V219.011ZM346.559 181.399L296.03 211.544L346.833 242.053L396.174 212.181L346.559 181.399Z" fill="black"></path>
</svg><style>@media (prefers-color-scheme: light) { :root { filter: none; } }
@media (prefers-color-scheme: dark) { :root { filter: invert(100%); } }
</style></svg>